Coordinates
version=1
nRows=10
nColumns=22
inDegrees=yes

Units are S.I. units (second, meters, Newtons, ...)
If the header above contains a line with 'inDegrees', this indicates whether rotational values are in degrees (yes) or radians (no).

endheader
time	pelvis_tilt	pelvis_list	pelvis_rotation	pelvis_tx	pelvis_ty	pelvis_tz	hip_flexion_r	hip_adduction_r	hip_rotation_r	knee_angle_r	ankle_angle_r	subtalar_angle_r	hip_flexion_l	hip_adduction_l	hip_rotation_l	knee_angle_l	ankle_angle_l	subtalar_angle_l	lumbar_extension	lumbar_bending	lumbar_rotation
      4.21000000	     -0.72590121	     11.04287992	    -87.80973150	      0.46938963	      0.97340086	      1.02909722	     27.77094094	     -0.96345347	     -2.06524819	    -54.77115027	     16.07011763	     -7.47822582	     31.47005697	      2.39934963	      0.51062110	    -25.13228367	     11.04820325	      0.91965087	      2.52908847	      0.91358814	      4.39945440
      4.22000000	     -0.73543657	     11.13237404	    -87.75170611	      0.47034704	      0.97397436	      1.03306788	     28.21481635	     -1.01730719	     -2.16828666	    -53.48451482	     16.80657603	     -7.16703117	     31.18672220	      2.45967502	      0.49104100	    -24.90506602	     11.21644595	      0.82205245	      2.48063165	      0.87273712	      4.23844365
      4.23000000	     -0.73844130	     11.20642593	    -87.72534693	      0.47120407	      0.97455497	      1.03698843	     28.60422728	     -1.06892810	     -2.24874078	    -52.14023096	     17.47246876	     -6.86869782	     30.88028811	      2.51213913	      0.48009908	    -24.66460368	     11.37872316	      0.71508796	      2.42433792	      0.83217282	      4.11574895
      4.24000000	     -0.73687445	     11.30806814	    -87.73708910	      0.47195312	      0.97504491	      1.04084950	     28.99734193	     -1.12477406	     -2.33261075	    -50.77162688	     18.07870159	     -6.82464598	     30.61883492	      2.54664563	      0.42696989	    -24.45026750	     11.54580654	      0.67497641	      2.41500371	      0.79053973	      4.05614293
      4.25000000	     -0.73882480	     11.32766617	    -87.73201139	      0.47271961	      0.97564558	      1.04470740	     29.26174314	     -1.21060446	     -2.48969725	    -49.38229973	     18.65353959	     -6.68793980	     30.27669017	      2.58231455	      0.37770302	    -24.24360079	     11.73528859	      0.55499489	      2.31940031	      0.76941881	      3.97709167
      4.26000000	     -0.73741621	     11.40944850	    -87.78782182	      0.47329484	      0.97613390	      1.04848917	     29.58012040	     -1.25900880	     -2.57205967	    -48.00462690	     19.15243378	     -6.69968858	     30.00121253	      2.59636988	      0.34116316	    -24.03842212	     11.89703605	      0.50388682	      2.31391039	      0.73914073	      3.97076376
      4.27000000	     -0.75936373	     11.38806894	    -87.82395565	      0.47387724	      0.97676389	      1.05228530	     29.75093365	     -1.31140318	     -2.74516115	    -46.63202110	     19.61855330	     -6.78206854	     29.63531151	      2.58531811	      0.27585710	    -23.86386899	     12.10495706	      0.37300744	      2.19731581	      0.75269695	      3.95342809
      4.28000000	     -0.78413694	     11.40283308	    -87.88689653	      0.47433398	      0.97732208	      1.05601167	     29.94764521	     -1.33281941	     -2.87493034	    -45.29536544	     20.03119590	     -6.94640714	     29.31483723	      2.56033918	      0.22894715	    -23.69730834	     12.29146584	      0.27446360	      2.13671649	      0.76706949	      3.97417053
      4.29000000	     -0.82657937	     11.40103888	    -87.94965333	      0.47471322	      0.97789649	      1.05968696	     30.10575044	     -1.31991121	     -2.99469801	    -43.99270864	     20.38173992	     -7.19022243	     28.98716455	      2.51609228	      0.20943971	    -23.54307832	     12.47736571	      0.17079705	      2.06723415	      0.80455973	      4.00692788
      4.30000000	     -0.86115747	     11.46334275	    -88.02008263	      0.47498087	      0.97831896	      1.06325789	     30.33509040	     -1.29492192	     -3.08250931	    -42.77063658	     20.76274089	     -7.29858774	     28.75447716	      2.47411078	      0.18421538	    -23.42598680	     12.64098380	      0.13057189	      2.08279673	      0.82077587	      4.06413361
